{
  "source": "C:\\Users\\Peter\\Desktop\\stuff\\MIUN\\quantitative_research\\video_compression\\videos\\BVI-HD\\BVI-HD_CDVL_videos\\ORIG\\Typing_1920x1080_60fps.mp4",
  "output": "C:\\Users\\Peter\\Desktop\\stuff\\MIUN\\quantitative_research\\video_compression\\compressed_videos\\BVI-HD\\av1\\4\\Typing_1920x1080_60fps_av1.mkv",
  "codec": "av1",
  "ok": "Input #0, mov,mp4,m4a,3gp,3g2,mj2, from 'C:\\Users\\Peter\\Desktop\\stuff\\MIUN\\quantitative_research\\video_compression\\videos\\BVI-HD\\BVI-HD_CDVL_videos\\ORIG\\Typing_1920x1080_60fps.mp4':\n  Metadata:\n    major_brand     : isom\n    minor_version   : 512\n    compatible_brands: isomiso2avc1mp41\n    encoder         : Lavf54.28.101\n  Duration: 00:00:05.00, start: 0.000000, bitrate: 203453 kb/s\n  Stream #0:0[0x1](und): Video: h264 (High 4:4:4 Predictive) (avc1 / 0x31637661), yuv420p(progressive), 1920x1080, 203448 kb/s, 60 fps, 60 tbr, 60 tbn (default)\n    Metadata:\n      handler_name    : VideoHandler\n      vendor_id       : [0][0][0][0]\n[out#0/matroska @ 000002bb41869000] Codec AVOption b:a (set bitrate (in bits/s)) has not been used for any stream. The most likely reason is either wrong type (e.g. a video option with no video streams) or that it is a private option of some decoder which was not actually used for any stream.\nStream mapping:\n  Stream #0:0 -> #0:0 (h264 (native) -> av1 (libsvtav1))\nPress [q] to stop, [?] for help\nSvt[info]: -------------------------------------------\nSvt[info]: SVT [version]:\tSVT-AV1 Encoder Lib v3.1.0-19-g6ecfe8ec\nSvt[info]: SVT [build]  :\tGCC 15.2.0\t 64 bit\nSvt[info]: LIB Build date: Aug 17 2025 11:37:13\nSvt[info]: -------------------------------------------\nSvt[info]: Level of Parallelism: 5\nSvt[info]: Number of PPCS 93\nSvt[info]: [asm level on system : up to avx2]\nSvt[info]: [asm level selected : up to avx2]\nSvt[info]: -------------------------------------------\nSvt[info]: SVT [config]: main profile\ttier (auto)\tlevel (auto)\nSvt[info]: SVT [config]: width / height / fps numerator / fps denominator \t\t: 1920 / 1080 / 60 / 1\nSvt[info]: SVT [config]: bit-depth / color format \t\t\t\t\t: 8 / YUV420\nSvt[info]: SVT [config]: preset / tune / pred struct \t\t\t\t\t: 4 / PSNR / random access\nSvt[info]: SVT [config]: gop size / mini-gop size / key-frame type \t\t\t: 321 / 16 / key frame\nSvt[info]: SVT [config]: BRC mode / target bitrate (kbps)\t\t\t\t: VBR / 4000 \nSvt[info]: SVT [config]: AQ mode / Variance Boost \t\t\t\t\t: 2 / 0\nSvt[info]: SVT [config]: sharpness / luminance-based QP bias \t\t\t\t: 0 / 0\nSvt[info]: SVT [config]: QP scale compress strength \t\t\t\t\t: 0\nSvt[info]: -------------------------------------------\nOutput #0, matroska, to 'C:\\Users\\Peter\\Desktop\\stuff\\MIUN\\quantitative_research\\video_compression\\compressed_videos\\BVI-HD\\av1\\4\\Typing_1920x1080_60fps_av1.mkv':\n  Metadata:\n    major_brand     : isom\n    minor_version   : 512\n    compatible_brands: isomiso2avc1mp41\n    encoder         : Lavf62.3.100\n  Stream #0:0(und): Video: av1 (AV01 / 0x31305641), yuv420p(tv, progressive), 1920x1080, q=2-31, 4000 kb/s, 60 fps, 1k tbn (default)\n    Metadata:\n      encoder         : Lavc62.11.100 libsvtav1\n      handler_name    : VideoHandler\n      vendor_id       : [0][0][0][0]\n    Side data:\n      cpb: bitrate max/min/avg: 0/0/4000000 buffer size: 4000000 vbv_delay: N/A\nframe=    0 fps=0.0 q=0.0 size=       0KiB time=N/A bitrate=N/A speed=N/A elapsed=0:00:01.03    \nframe=    0 fps=0.0 q=0.0 size=       0KiB time=N/A bitrate=N/A speed=N/A elapsed=0:00:01.60    \nframe=    0 fps=0.0 q=0.0 size=       0KiB time=N/A bitrate=N/A speed=N/A elapsed=0:00:02.18    \nframe=    0 fps=0.0 q=0.0 size=       0KiB time=N/A bitrate=N/A speed=N/A elapsed=0:00:02.70    \nframe=    0 fps=0.0 q=0.0 size=       0KiB time=N/A bitrate=N/A speed=N/A elapsed=0:00:03.23    \nframe=    0 fps=0.0 q=0.0 size=       0KiB time=N/A bitrate=N/A speed=N/A elapsed=0:00:03.77    \nframe=    0 fps=0.0 q=0.0 size=       0KiB time=N/A bitrate=N/A speed=N/A elapsed=0:00:04.34    \nframe=    1 fps=0.2 q=4.0 size=       1KiB time=00:00:00.00 bitrate=N/A speed=   0x elapsed=0:00:04.87    \nframe=    1 fps=0.2 q=4.0 size=       1KiB time=00:00:00.00 bitrate=N/A speed=   0x elapsed=0:00:05.40    \nframe=    3 fps=0.5 q=29.0 size=       1KiB time=00:00:00.03 bitrate= 170.9kbits/s speed=0.00557x elapsed=0:00:05.98    \nframe=    7 fps=1.1 q=29.0 size=       1KiB time=00:00:00.10 bitrate=  57.0kbits/s speed=0.0154x elapsed=0:00:06.50    \nframe=    8 fps=1.1 q=32.0 size=       1KiB time=00:00:00.11 bitrate=  48.8kbits/s speed=0.0166x elapsed=0:00:07.03    \nframe=   12 fps=1.6 q=32.0 size=       1KiB time=00:00:00.18 bitrate=  31.1kbits/s speed=0.0242x elapsed=0:00:07.56    \nframe=   16 fps=2.0 q=31.0 size=       1KiB time=00:00:00.25 bitrate=  22.8kbits/s speed=0.0307x elapsed=0:00:08.15    \nframe=   21 fps=2.4 q=26.0 size=       1KiB time=00:00:00.31 bitrate=  18.0kbits/s speed=0.0364x elapsed=0:00:08.70    \nframe=   23 fps=2.5 q=25.0 size=       1KiB time=00:00:00.36 bitrate=  15.5kbits/s speed=0.0397x elapsed=0:00:09.23    \nframe=   26 fps=2.7 q=23.0 size=       1KiB time=00:00:00.41 bitrate=  13.7kbits/s speed=0.0426x elapsed=0:00:09.78    \nframe=   28 fps=2.7 q=20.0 size=       1KiB time=00:00:00.45 bitrate=  12.7kbits/s speed=0.0434x elapsed=0:00:10.35    \nframe=   34 fps=3.1 q=22.0 size=       1KiB time=00:00:00.55 bitrate=  10.4kbits/s speed=0.0505x elapsed=0:00:10.89    \nframe=   37 fps=3.2 q=26.0 size=       1KiB time=00:00:00.60 bitrate=   9.5kbits/s speed=0.0525x elapsed=0:00:11.43    \nframe=   39 fps=3.3 q=23.0 size=       1KiB time=00:00:00.63 bitrate=   9.0kbits/s speed=0.0529x elapsed=0:00:11.97    \nframe=   43 fps=3.4 q=23.0 size=       1KiB time=00:00:00.70 bitrate=   8.1kbits/s speed=0.056x elapsed=0:00:12.50    \nframe=   46 fps=3.5 q=18.0 size=       1KiB time=00:00:00.75 bitrate=   7.6kbits/s speed=0.0575x elapsed=0:00:13.04    \nframe=   49 fps=3.6 q=8.0 size=       1KiB time=00:00:00.80 bitrate=   7.1kbits/s speed=0.0588x elapsed=0:00:13.61    \nframe=   52 fps=3.7 q=17.0 size=       1KiB time=00:00:00.85 bitrate=   6.7kbits/s speed=0.06x elapsed=0:00:14.16    \nframe=   55 fps=3.7 q=19.0 size=       1KiB time=00:00:00.90 bitrate=   6.3kbits/s speed=0.0613x elapsed=0:00:14.67    \nframe=   58 fps=3.8 q=16.0 size=       1KiB time=00:00:00.95 bitrate=   6.0kbits/s speed=0.0625x elapsed=0:00:15.21    \nframe=   60 fps=3.8 q=15.0 size=       1KiB time=00:00:00.98 bitrate=   5.8kbits/s speed=0.0622x elapsed=0:00:15.79    \nframe=   63 fps=3.8 q=19.0 size=       1KiB time=00:00:01.03 bitrate=   5.5kbits/s speed=0.063x elapsed=0:00:16.40    \nframe=   64 fps=3.8 q=19.0 size=       1KiB time=00:00:01.05 bitrate=   5.4kbits/s speed=0.062x elapsed=0:00:16.92    \nframe=   67 fps=3.8 q=20.0 size=       1KiB time=00:00:01.10 bitrate=   5.2kbits/s speed=0.0631x elapsed=0:00:17.44    \nframe=   69 fps=3.8 q=22.0 size=       1KiB time=00:00:01.13 bitrate=   5.0kbits/s speed=0.0631x elapsed=0:00:17.97    \nframe=   71 fps=3.8 q=21.0 size=       1KiB time=00:00:01.16 bitrate=   4.9kbits/s speed=0.0631x elapsed=0:00:18.49    \nframe=   72 fps=3.8 q=20.0 size=       1KiB time=00:00:01.18 bitrate=   4.8kbits/s speed=0.0622x elapsed=0:00:19.02    \nframe=   75 fps=3.8 q=24.0 size=       1KiB time=00:00:01.23 bitrate=   4.6kbits/s speed=0.0631x elapsed=0:00:19.54    \nframe=   77 fps=3.8 q=24.0 size=       1KiB time=00:00:01.26 bitrate=   4.5kbits/s speed=0.063x elapsed=0:00:20.11    \nframe=   80 fps=3.9 q=17.0 size=       1KiB time=00:00:01.31 bitrate=   4.3kbits/s speed=0.0638x elapsed=0:00:20.64    \nframe=   83 fps=3.9 q=22.0 size=       1KiB time=00:00:01.36 bitrate=   4.2kbits/s speed=0.0645x elapsed=0:00:21.19    \nframe=   85 fps=3.9 q=23.0 size=       1KiB time=00:00:01.40 bitrate=   4.1kbits/s speed=0.0644x elapsed=0:00:21.75    \nframe=   87 fps=3.9 q=21.0 size=       1KiB time=00:00:01.43 bitrate=   4.0kbits/s speed=0.0642x elapsed=0:00:22.31    \nframe=   90 fps=3.9 q=18.0 size=       1KiB time=00:00:01.48 bitrate=   3.8kbits/s speed=0.0649x elapsed=0:00:22.86    \nframe=   92 fps=3.9 q=17.0 size=       1KiB time=00:00:01.51 bitrate=   3.8kbits/s speed=0.0647x elapsed=0:00:23.43    \nframe=   95 fps=4.0 q=23.0 size=       1KiB time=00:00:01.56 bitrate=   3.6kbits/s speed=0.0652x elapsed=0:00:24.04    \nframe=   99 fps=4.0 q=26.0 size=       1KiB time=00:00:01.63 bitrate=   3.5kbits/s speed=0.0664x elapsed=0:00:24.60    \nframe=  103 fps=4.1 q=25.0 size=       1KiB time=00:00:01.70 bitrate=   3.4kbits/s speed=0.0677x elapsed=0:00:25.12    \nframe=  105 fps=4.1 q=9.0 size=       1KiB time=00:00:01.73 bitrate=   3.3kbits/s speed=0.0676x elapsed=0:00:25.62    \nframe=  110 fps=4.2 q=20.0 size=       1KiB time=00:00:01.81 bitrate=   3.1kbits/s speed=0.0695x elapsed=0:00:26.15    \nframe=  114 fps=4.3 q=17.0 size=       1KiB time=00:00:01.88 bitrate=   3.0kbits/s speed=0.0706x elapsed=0:00:26.68    \nframe=  118 fps=4.3 q=17.0 size=       1KiB time=00:00:01.95 bitrate=   2.9kbits/s speed=0.0716x elapsed=0:00:27.22    \nframe=  120 fps=4.3 q=18.0 size=       1KiB time=00:00:01.98 bitrate=   2.9kbits/s speed=0.0714x elapsed=0:00:27.75    \nframe=  124 fps=4.4 q=19.0 size=       1KiB time=00:00:02.05 bitrate=   2.8kbits/s speed=0.0724x elapsed=0:00:28.29    \nframe=  128 fps=4.4 q=20.0 size=       1KiB time=00:00:02.11 bitrate=   2.7kbits/s speed=0.0734x elapsed=0:00:28.85    \nframe=  133 fps=4.5 q=21.0 size=       1KiB time=00:00:02.20 bitrate=   2.6kbits/s speed=0.0749x elapsed=0:00:29.37    \nframe=  136 fps=4.5 q=18.0 size=       1KiB time=00:00:02.25 bitrate=   2.5kbits/s speed=0.0753x elapsed=0:00:29.89    \nframe=  142 fps=4.7 q=21.0 size=       1KiB time=00:00:02.35 bitrate=   2.4kbits/s speed=0.0772x elapsed=0:00:30.42    \nframe=  148 fps=4.8 q=23.0 size=       1KiB time=00:00:02.45 bitrate=   2.3kbits/s speed=0.0792x elapsed=0:00:30.93    \nframe=  152 fps=4.8 q=23.0 size=       1KiB time=00:00:02.51 bitrate=   2.3kbits/s speed=0.08x elapsed=0:00:31.46    \nframe=  158 fps=4.9 q=21.0 size=       1KiB time=00:00:02.61 bitrate=   2.2kbits/s speed=0.0818x elapsed=0:00:31.97    \nframe=  163 fps=5.0 q=20.0 size=       1KiB time=00:00:02.70 bitrate=   2.1kbits/s speed=0.0831x elapsed=0:00:32.49    \nframe=  168 fps=5.1 q=12.0 size=       1KiB time=00:00:02.78 bitrate=   2.0kbits/s speed=0.0843x elapsed=0:00:33.00    \nframe=  173 fps=5.2 q=18.0 size=       1KiB time=00:00:02.86 bitrate=   2.0kbits/s speed=0.0855x elapsed=0:00:33.52    \nframe=  179 fps=5.3 q=18.0 size=       1KiB time=00:00:02.96 bitrate=   1.9kbits/s speed=0.0871x elapsed=0:00:34.07    \nframe=  183 fps=5.3 q=18.0 size=       1KiB time=00:00:03.03 bitrate=   1.9kbits/s speed=0.0877x elapsed=0:00:34.58    \nframe=  186 fps=5.3 q=19.0 size=       1KiB time=00:00:03.08 bitrate=   1.8kbits/s speed=0.0878x elapsed=0:00:35.11    \nframe=  192 fps=5.4 q=20.0 size=       1KiB time=00:00:03.18 bitrate=   1.8kbits/s speed=0.0894x elapsed=0:00:35.62    \nframe=  196 fps=5.4 q=20.0 size=       1KiB time=00:00:03.25 bitrate=   1.8kbits/s speed=0.0899x elapsed=0:00:36.14    \nframe=  199 fps=5.4 q=19.0 size=       1KiB time=00:00:03.30 bitrate=   1.7kbits/s speed=0.09x elapsed=0:00:36.67    \nframe=  205 fps=5.5 q=20.0 size=       1KiB time=00:00:03.40 bitrate=   1.7kbits/s speed=0.0914x elapsed=0:00:37.18    \nframe=  209 fps=5.5 q=7.0 size=       1KiB time=00:00:03.46 bitrate=   1.6kbits/s speed=0.0919x elapsed=0:00:37.70    \nframe=  213 fps=5.6 q=21.0 size=       1KiB time=00:00:03.53 bitrate=   1.6kbits/s speed=0.0924x elapsed=0:00:38.22    \nframe=  217 fps=5.6 q=13.0 size=       1KiB time=00:00:03.60 bitrate=   1.6kbits/s speed=0.0929x elapsed=0:00:38.74    \nframe=  221 fps=5.6 q=22.0 size=       1KiB time=00:00:03.66 bitrate=   1.6kbits/s speed=0.0934x elapsed=0:00:39.25    \nframe=  229 fps=5.8 q=22.0 size=       1KiB time=00:00:03.80 bitrate=   1.5kbits/s speed=0.0955x elapsed=0:00:39.78    \nframe=  233 fps=5.8 q=14.0 size=       1KiB time=00:00:03.86 bitrate=   1.5kbits/s speed=0.0959x elapsed=0:00:40.29    \nframe=  237 fps=5.8 q=22.0 size=       1KiB time=00:00:03.93 bitrate=   1.4kbits/s speed=0.0964x elapsed=0:00:40.82    \nframe=  241 fps=5.8 q=7.0 size=       1KiB time=00:00:04.00 bitrate=   1.4kbits/s speed=0.0967x elapsed=0:00:41.35    \nframe=  247 fps=5.9 q=22.0 size=       1KiB time=00:00:04.10 bitrate=   1.4kbits/s speed=0.0979x elapsed=0:00:41.87    \nframe=  249 fps=5.9 q=13.0 size=       1KiB time=00:00:04.13 bitrate=   1.4kbits/s speed=0.0975x elapsed=0:00:42.40    \nframe=  253 fps=5.9 q=22.0 size=       1KiB time=00:00:04.20 bitrate=   1.4kbits/s speed=0.0979x elapsed=0:00:42.90    \nframe=  259 fps=6.0 q=20.0 size=       1KiB time=00:00:04.30 bitrate=   1.3kbits/s speed=0.099x elapsed=0:00:43.44    \nframe=  265 fps=6.0 q=14.0 size=       1KiB time=00:00:04.40 bitrate=   1.3kbits/s speed= 0.1x elapsed=0:00:43.97    \nframe=  267 fps=6.0 q=21.0 size=       1KiB time=00:00:04.43 bitrate=   1.3kbits/s speed=0.0997x elapsed=0:00:44.48    \nframe=  273 fps=6.1 q=7.0 size=       1KiB time=00:00:04.53 bitrate=   1.3kbits/s speed=0.101x elapsed=0:00:45.00    \nframe=  277 fps=6.1 q=26.0 size=       1KiB time=00:00:04.60 bitrate=   1.2kbits/s speed=0.101x elapsed=0:00:45.52    \nframe=  281 fps=6.1 q=18.0 size=       1KiB time=00:00:04.66 bitrate=   1.2kbits/s speed=0.101x elapsed=0:00:46.05    \nframe=  287 fps=6.2 q=23.0 size=       1KiB time=00:00:04.76 bitrate=   1.2kbits/s speed=0.102x elapsed=0:00:46.58    \n[out#0/matroska @ 000002bb41869000] video:2209KiB audio:0KiB subtitle:0KiB other streams:0KiB global headers:0KiB muxing overhead: 0.094214%\nframe=  300 fps=6.4 q=32.0 Lsize=    2211KiB time=00:00:04.98 bitrate=3634.5kbits/s speed=0.106x elapsed=0:00:46.92    \n",
  "seconds": 47.43579149246216,
  "probe_out": {}
}